HIERARCHY
ROOT Hips
{
  OFFSET 0 36.3817 0
  CHANNELS 6 Xposition Yposition Zposition Zrotation Xrotation Yrotation
  JOINT RightUpLeg
  {
    OFFSET -4.29018 -2.89678 0.143039
    CHANNELS 3 Zrotation Xrotation Yrotation
    JOINT RightLeg
    {
      OFFSET -0.168672 -10.876 -0.198176
      CHANNELS 3 Zrotation Xrotation Yrotation
      JOINT RightFoot
      {
        OFFSET 0.157923 -15.9551 -0.639649
        CHANNELS 3 Zrotation Xrotation Yrotation
        JOINT RightToeBase
        {
          OFFSET -0.0414727 -3.68646 5.89146
          CHANNELS 3 Zrotation Xrotation Yrotation
          End Site
          {
            OFFSET -0.058008 -0.022426 3.3914
          }
        }
      }
    }
  }
  JOINT LeftUpLeg
  {
    OFFSET 4.29018 -2.89678 0.143039
    CHANNELS 3 Zrotation Xrotation Yrotation
    JOINT LeftLeg
    {
      OFFSET 0.168672 -10.876 -0.198176
      CHANNELS 3 Zrotation Xrotation Yrotation
      JOINT LeftFoot
      {
        OFFSET -0.157923 -15.9551 -0.639649
        CHANNELS 3 Zrotation Xrotation Yrotation
        JOINT LeftToeBase
        {
          OFFSET 0.0414727 -3.68646 5.89146
          CHANNELS 3 Zrotation Xrotation Yrotation
          End Site
          {
            OFFSET 0 0 0
          }
        }
      }
    }
  }
  JOINT Spine
  {
    OFFSET 5.86144e-05 2.32248 -0.145562
    CHANNELS 3 Zrotation Xrotation Yrotation
    JOINT Spine1
    {
      OFFSET 0 6.08593 -0.152112
      CHANNELS 3 Zrotation Xrotation Yrotation
      JOINT Spine2
      {
        OFFSET 0 6.33752 -0.148988
        CHANNELS 3 Zrotation Xrotation Yrotation
        JOINT RightShoulder
        {
          OFFSET -2.05493 4.15599 -0.189712
          CHANNELS 3 Zrotation Xrotation Yrotation
          JOINT RightArm
          {
            OFFSET -4.33325 -1.05627 -0.0141634
            CHANNELS 3 Zrotation Xrotation Yrotation
            JOINT RightForeArm
            {
              OFFSET -10.3086 -5.16798e-05 0
              CHANNELS 3 Zrotation Xrotation Yrotation
              JOINT RightHand
              {
                OFFSET -10.1392 -4.937e-05 0
                CHANNELS 3 Zrotation Xrotation Yrotation
                End Site
                {
                  OFFSET -3.93579 -5.00749e-05 0
                }
              }
            }
          }
        }
        JOINT LeftShoulder
        {
          OFFSET 2.05493 4.15599 -0.189712
          CHANNELS 3 Zrotation Xrotation Yrotation
          JOINT LeftArm
          {
            OFFSET 4.33325 -1.05627 -0.0141634
            CHANNELS 3 Zrotation Xrotation Yrotation
            JOINT LeftForeArm
            {
              OFFSET 10.3086 -5.16798e-05 0
              CHANNELS 3 Zrotation Xrotation Yrotation
              JOINT LeftHand
              {
                OFFSET 10.1392 -4.937e-05 0
                CHANNELS 3 Zrotation Xrotation Yrotation
                End Site
                {
                  OFFSET 3.93579 -5.00749e-05 0
                }
              }
            }
          }
        }
        JOINT Neck
        {
          OFFSET 0 5.46156 -0.234248
          CHANNELS 3 Zrotation Xrotation Yrotation
          JOINT Head
          {
            OFFSET 0 3.87151 0.0520564
            CHANNELS 3 Zrotation Xrotation Yrotation
            End Site
            {
              OFFSET 0 12.6919 0
            }
          }
        }
      }
    }
  }
}
MOTION
Frames:	11
Frame Time:	0.0333333
-1.26802e-07 36.3804 -0.143039 7.06225e-31 0 -0 0.0228602 -2.09835 0.000286402 -0.000299666 0.529952 -0.00975293 -0.0228257 1.56839 0.0100988 4.14102e-27 2.3697e-23 -0 -0.0228595 -2.09889 -0.000284948 0.000308091 0.530499 0.00975273 0.0228166 1.56838 -0.0101001 -2.90941e-26 0 -0 0 0 -0 0 0 -0 0 0 -0 0 0 -0 0.000113691 -1.70774e-06 0.000134896 -0.000109038 8.53821e-06 -0.000144492 -4.65377e-06 -6.83021e-06 9.59617e-06 0 0 -0 -0.000123937 -1.70773e-06 -0.000140873 0.000123746 -1.70706e-06 0.000150835 1.90424e-07 3.41509e-06 -9.96251e-06 0 0 -0 0 0 -0 
-6.06889 36.5373 -40.7956 -7.19859 -11.4413 -21.7917 -3.59719 -12.0084 -6.59503 0.0106384 20.8913 -0.0407163 3.04128 0.498881 -11.7873 -3.81575e-06 -22.8362 -7.90774e-06 -0.0170254 17.4135 5.92122 -0.000597744 8.66062 -0.00637799 1.46866 -11.4447 6.07684 -9.59694e-08 -10.3963 -3.06184e-06 1.67511 4.27262 1.79383 3.22851 8.59401 3.47596 3.22851 8.59401 3.47596 -19.0747 -2.68477 -9.03604 75.4318 35.0513 11.6428 1.6821e-05 -1.82011e-05 99.8113 -18.449 -28.9936 -16.8131 17.6837 8.51992 -11.6155 -80.714 21.2243 -18.058 3.87108e-05 4.77518e-06 -19.3451 6.61919 -0.0129113 -2.45601 19.8722 16.4969 -2.80565 14.4539 6.07954 16.0091 
-6.36487 36.3854 -39.9711 -6.35824 -11.4278 -20.7929 -4.00432 -10.0133 -9.04862 -0.00397519 12.3644 0.0024746 2.51971 -1.18456 -7.03427 -9.05978e-06 -23.0564 -1.20501e-05 -0.604003 19.1024 5.66212 -0.0164645 8.08292 -0.0096305 1.34509 -12.425 5.64452 1.7378e-06 -10.3932 -2.64973e-06 1.49635 4.25949 1.6667 2.87953 8.55946 3.23454 2.87953 8.55946 3.23453 -19.1446 -2.30097 -9.47853 75.9503 34.5747 11.2998 -4.66286e-05 1.01638e-05 99.5857 -18.9252 -28.6714 -17.1783 18.5036 8.06269 -12.2085 -80.0682 22.1402 -19.7152 2.2852e-05 7.65093e-06 -21.4794 7.31983 -1.00276 -2.60138 21.7401 17.0391 -5.2641 15.0729 6.72384 12.4566 
-6.74329 36.2167 -39.0866 -5.8462 -11.1732 -19.88 -3.81951 -8.88166 -10.615 -0.00166079 6.3221 0.0260245 3.0439 -2.35021 -3.00031 -1.84643e-06 -23.6004 -9.09249e-06 -0.567364 20.1472 5.53954 -0.00516469 8.48667 -0.00844192 1.20756 -13.6175 5.03349 -1.75572e-06 -10.1267 -6.50673e-06 1.39659 4.20148 1.54988 2.68933 8.43816 3.00858 2.68934 8.43816 3.00858 -18.8755 -1.84894 -9.83192 76.2459 33.919 10.7527 1.44322e-05 1.00109e-05 99.4402 -18.1797 -28.2923 -16.889 19.1896 7.62982 -12.5811 -79.1801 23.4866 -21.0621 5.53353e-05 -2.31305e-06 -24.0658 8.01236 -2.0494 -3.531 22.9752 16.8814 -7.33822 14.9975 6.66509 9.1953 
-7.20137 36.0493 -38.1361 -5.85116 -10.7724 -18.869 -2.85383 -8.36054 -9.93646 0.000258871 3.56592 0.0291791 2.54673 -3.5063 -1.45875 2.90185e-06 -23.8829 -2.27228e-06 0.278997 21.4909 5.06965 -0.00120562 8.79339 -0.00550088 0.848483 -14.9287 4.50153 8.36113e-07 -10.2379 -1.49268e-06 1.42259 4.10701 1.41861 2.75325 8.2469 2.74491 2.75325 8.2469 2.74491 -18.4882 -1.54796 -10.1089 76.6212 33.4471 9.80524 6.04521e-05 7.28305e-06 99.1547 -18.276 -28.6858 -16.9308 19.6499 6.9694 -12.802 -78.1335 25.2189 -21.9821 8.35348e-05 3.87381e-06 -26.8596 8.52421 -1.70683 -3.83512 23.4388 16.1252 -8.77989 15.1199 6.17681 6.75317 
-7.73239 35.8493 -37.0896 -5.86024 -10.3903 -17.8263 -1.94454 -8.86941 -7.47967 -0.000689553 5.08094 0.0176591 1.12196 -4.40038 -2.97442 1.01378e-06 -23.3745 4.52667e-06 1.20368 23.356 4.02943 -0.000550082 8.60646 -0.00234455 0.475305 -16.1034 4.47875 1.12804e-06 -10.4841 -3.08456e-06 1.45097 3.93427 1.27153 2.82393 7.89865 2.45135 2.82393 7.89865 2.45135 -18.1529 -1.11681 -10.1867 76.9551 33.0513 8.78045 2.92279e-05 1.65479e-05 98.9125 -18.3471 -28.725 -17.0505 20.1313 6.254 -12.9316 -77.358 27.1226 -22.3513 -0.000153445 4.03469e-06 -29.4574 8.9662 -1.57049 -3.94913 23.4091 14.8789 -9.84148 15.278 5.61101 4.65874 
-8.36999 35.6494 -35.9708 -6.12585 -9.79228 -16.6267 -0.513627 -10.2013 -5.3757 -0.00345849 9.40973 -0.00159454 -1.12013 -3.95951 -5.93421 4.50404e-07 -23.5354 -4.4357e-06 3.00105 24.6373 3.50409 0.000306983 9.2522 0.00934301 -0.501462 -17.216 3.60707 1.07078e-06 -10.4534 3.57489e-06 1.49512 3.66539 1.1035 2.92813 7.35776 2.11709 2.92813 7.35776 2.11711 -17.5885 -0.84764 -10.3991 77.3486 32.9951 7.53888 -1.87697e-06 2.50312e-05 98.5766 -18.4461 -28.3889 -17.1296 20.4954 5.53623 -12.9492 -76.5831 29.0492 -22.2017 -3.50433e-05 -4.69457e-06 -31.7557 8.87055 -2.09319 -4.12738 23.4685 13.1545 -10.5728 15.5462 4.89015 3.3566 
-9.1023 35.5739 -34.8488 -7.46173 -9.12529 -15.3437 2.42229 -11.0158 -2.97589 -0.00371452 11.4199 -0.0221504 -3.61534 1.9594 -9.51351 -3.41035e-06 -23.2159 -6.40565e-06 6.67599 24.2933 2.82873 0.00365578 12.3827 0.0297941 -2.31557 -17.5677 2.00954 -3.25901e-08 -11.1177 -2.71638e-06 1.70976 3.44741 0.923652 3.37276 6.9205 1.7484 3.37276 6.9205 1.74841 -16.2924 -0.952217 -10.8221 77.3168 32.8667 6.24951 1.49657e-05 4.21906e-06 97.9466 -17.4435 -28.8642 -17.1091 19.7864 5.08964 -13.0322 -75.1318 30.1495 -21.6696 -9.44625e-05 -1.65189e-05 -33.7876 8.37624 -1.88271 -4.13394 23.4653 10.6194 -11.2105 15.8628 3.99115 2.55116 
-9.88055 35.5656 -33.6528 -8.48489 -8.79877 -14.2804 4.48519 -11.0683 -0.0878826 -0.00139263 13.2882 -0.0378005 -2.33371 6.08999 -12.3016 1.9097e-06 -23.5344 -2.72698e-06 9.75674 22.736 1.16674 0.00643171 17.236 0.0515287 -3.93185 -16.2651 1.85532 2.0433e-06 -12.8952 -9.15782e-07 1.83717 3.24879 0.748881 3.64044 6.51972 1.39626 3.64044 6.51972 1.39625 -15.6676 -0.69374 -10.9834 77.865 32.7413 5.1897 4.48776e-05 1.47857e-05 96.957 -17.5629 -28.7264 -17.1804 19.267 5.26171 -13.1314 -74.3154 30.7531 -20.9965 -1.29085e-05 -8.55508e-06 -35.1005 8.84217 -2.14958 -4.02768 23.0461 7.89507 -11.5154 16.2557 2.41487 2.56561 
-10.6452 35.6326 -32.4568 -8.87689 -8.83454 -13.7895 5.55412 -10.3475 -0.274466 -0.00308589 15.8703 -0.0421106 -2.32112 5.65293 -12.805 1.16861e-06 -23.3318 1.27451e-06 11.597 19.6153 -0.19473 -0.0495567 23.8959 0.110105 -5.49273 -12.5402 2.49521 -9.86109e-07 -16.2806 -4.28589e-06 1.78888 3.06824 0.647951 3.55051 6.15505 1.20209 3.55051 6.15505 1.20209 -15.745 -0.447198 -10.9153 79.2947 32.5658 3.84851 3.00224e-05 1.02733e-05 95.5193 -17.1731 -28.0333 -16.8443 19.3691 5.59767 -13.0571 -74.7446 31.116 -19.9103 -3.64143e-05 -8.567e-06 -35.1301 8.96073 -3.1956 -4.23409 22.4914 5.30438 -11.5536 16.7016 0.203625 3.0097 
-11.3942 35.7563 -31.3303 -8.96661 -9.43205 -13.4561 6.48619 -7.70843 -1.18649 -0.00425678 16.8374 -0.0279314 -3.94954 3.37949 -12.4143 4.46836e-06 -23.0368 1.09811e-06 13.0422 14.5849 -0.424419 -0.0786983 32.4228 0.194491 -6.52129 -5.45054 2.28699 -1.26192e-06 -18.3168 -3.37935e-06 1.62357 3.0055 0.621698 3.22104 6.02726 1.1602 3.22104 6.02726 1.16019 -15.975 -0.132216 -10.8436 80.9647 32.2019 2.54544 1.50028e-05 7.9009e-06 93.711 -16.5947 -28.6095 -16.6474 19.6839 5.9583 -13.0676 -75.6707 30.9657 -18.5488 -1.46777e-05 -8.15489e-06 -34.6154 8.15719 -4.24139 -4.29632 21.8545 2.61035 -11.5967 17.017 -2.09134 3.4939 
